<?xml version="1.0" encoding="utf-8" standalone="no"?>
<!DOCTYPE svg PUBLIC "-//W3C//DTD SVG 1.1//EN"
  "http://www.w3.org/Graphics/SVG/1.1/DTD/svg11.dtd">
<!-- Created with matplotlib (https://matplotlib.org/) -->
<svg height="288pt" version="1.1" viewBox="0 0 432 288" width="432pt" xmlns="http://www.w3.org/2000/svg" xmlns:xlink="http://www.w3.org/1999/xlink">
 <defs>
  <style type="text/css">
*{stroke-linecap:butt;stroke-linejoin:round;}
  </style>
 </defs>
 <g id="figure_1">
  <g id="patch_1">
   <path d="M 0 288 
L 432 288 
L 432 0 
L 0 0 
z
" style="fill:#ffffff;"/>
  </g>
  <g id="axes_1">
   <g id="patch_2">
    <path d="M 54 252 
L 388.8 252 
L 388.8 34.56 
L 54 34.56 
z
" style="fill:#ffffff;"/>
   </g>
   <g id="matplotlib.axis_1">
    <g id="xtick_1">
     <g id="line2d_1"/>
     <g id="text_1">
      <!-- 2020-09-01 -->
      <defs>
       <path d="M 51.8125 0 
L 4.890625 0 
L 4.890625 6.984375 
L 23.6875 25.875 
Q 32.28125 34.578125 35.015625 38.28125 
Q 37.75 42 39.109375 45.515625 
Q 40.484375 49.03125 40.484375 53.078125 
Q 40.484375 58.796875 37.015625 62.140625 
Q 33.546875 65.484375 27.390625 65.484375 
Q 22.953125 65.484375 18.96875 64.015625 
Q 14.984375 62.546875 10.109375 58.6875 
L 5.8125 64.203125 
Q 15.671875 72.40625 27.296875 72.40625 
Q 37.359375 72.40625 43.0625 67.25 
Q 48.78125 62.109375 48.78125 53.421875 
Q 48.78125 46.625 44.96875 39.984375 
Q 41.15625 33.34375 30.71875 23.1875 
L 15.09375 7.90625 
L 15.09375 7.515625 
L 51.8125 7.515625 
z
" id="OpenSans-50"/>
       <path d="M 52.203125 35.796875 
Q 52.203125 17.28125 46.359375 8.140625 
Q 40.53125 -0.984375 28.515625 -0.984375 
Q 17 -0.984375 10.984375 8.359375 
Q 4.984375 17.71875 4.984375 35.796875 
Q 4.984375 54.4375 10.796875 63.46875 
Q 16.609375 72.515625 28.515625 72.515625 
Q 40.140625 72.515625 46.171875 63.078125 
Q 52.203125 53.65625 52.203125 35.796875 
z
M 13.1875 35.796875 
Q 13.1875 20.21875 16.84375 13.109375 
Q 20.515625 6 28.515625 6 
Q 36.625 6 40.25 13.203125 
Q 43.890625 20.40625 43.890625 35.796875 
Q 43.890625 51.171875 40.25 58.328125 
Q 36.625 65.484375 28.515625 65.484375 
Q 20.515625 65.484375 16.84375 58.421875 
Q 13.1875 51.375 13.1875 35.796875 
z
" id="OpenSans-48"/>
       <path d="M 4.109375 23.09375 
L 4.109375 30.515625 
L 28.078125 30.515625 
L 28.078125 23.09375 
z
" id="OpenSans-45"/>
       <path d="M 51.8125 40.921875 
Q 51.8125 -0.984375 19.390625 -0.984375 
Q 13.71875 -0.984375 10.40625 0 
L 10.40625 6.984375 
Q 14.3125 5.71875 19.28125 5.71875 
Q 31 5.71875 36.984375 12.96875 
Q 42.96875 20.21875 43.5 35.203125 
L 42.921875 35.203125 
Q 40.234375 31.15625 35.78125 29.03125 
Q 31.34375 26.90625 25.78125 26.90625 
Q 16.3125 26.90625 10.734375 32.5625 
Q 5.171875 38.234375 5.171875 48.390625 
Q 5.171875 59.515625 11.390625 65.953125 
Q 17.625 72.40625 27.78125 72.40625 
Q 35.0625 72.40625 40.5 68.671875 
Q 45.953125 64.9375 48.875 57.78125 
Q 51.8125 50.640625 51.8125 40.921875 
z
M 27.78125 65.484375 
Q 20.796875 65.484375 16.984375 60.984375 
Q 13.1875 56.5 13.1875 48.484375 
Q 13.1875 41.453125 16.703125 37.421875 
Q 20.21875 33.40625 27.390625 33.40625 
Q 31.84375 33.40625 35.578125 35.203125 
Q 39.3125 37.015625 41.453125 40.140625 
Q 43.609375 43.265625 43.609375 46.6875 
Q 43.609375 51.8125 41.59375 56.15625 
Q 39.59375 60.5 36 62.984375 
Q 32.421875 65.484375 27.78125 65.484375 
z
" id="OpenSans-57"/>
       <path d="M 34.90625 0 
L 27 0 
L 27 50.875 
Q 27 57.234375 27.390625 62.890625 
Q 26.375 61.859375 25.09375 60.734375 
Q 23.828125 59.625 13.484375 51.21875 
L 9.1875 56.78125 
L 28.078125 71.390625 
L 34.90625 71.390625 
z
" id="OpenSans-49"/>
      </defs>
      <g style="fill:#262626;" transform="translate(49.287714 309.716792)rotate(-45)scale(0.12 -0.12)">
       <use xlink:href="#OpenSans-50"/>
       <use x="57.177734" xlink:href="#OpenSans-48"/>
       <use x="114.355469" xlink:href="#OpenSans-50"/>
       <use x="171.533203" xlink:href="#OpenSans-48"/>
       <use x="228.710938" xlink:href="#OpenSans-45"/>
       <use x="260.888672" xlink:href="#OpenSans-48"/>
       <use x="318.066406" xlink:href="#OpenSans-57"/>
       <use x="375.244141" xlink:href="#OpenSans-45"/>
       <use x="407.421875" xlink:href="#OpenSans-48"/>
       <use x="464.599609" xlink:href="#OpenSans-49"/>
      </g>
     </g>
    </g>
    <g id="xtick_2">
     <g id="line2d_2"/>
     <g id="text_2">
      <!-- 2020-09-08 -->
      <defs>
       <path d="M 28.515625 72.40625 
Q 38.28125 72.40625 43.984375 67.859375 
Q 49.703125 63.328125 49.703125 55.328125 
Q 49.703125 50.046875 46.4375 45.703125 
Q 43.171875 41.359375 35.984375 37.796875 
Q 44.671875 33.640625 48.328125 29.078125 
Q 52 24.515625 52 18.5 
Q 52 9.625 45.796875 4.3125 
Q 39.59375 -0.984375 28.8125 -0.984375 
Q 17.390625 -0.984375 11.234375 4.015625 
Q 5.078125 9.03125 5.078125 18.21875 
Q 5.078125 30.46875 20.015625 37.3125 
Q 13.28125 41.109375 10.34375 45.53125 
Q 7.421875 49.953125 7.421875 55.421875 
Q 7.421875 63.1875 13.15625 67.796875 
Q 18.890625 72.40625 28.515625 72.40625 
z
M 13.09375 18.015625 
Q 13.09375 12.15625 17.15625 8.875 
Q 21.234375 5.609375 28.609375 5.609375 
Q 35.890625 5.609375 39.9375 9.03125 
Q 44 12.453125 44 18.40625 
Q 44 23.140625 40.1875 26.828125 
Q 36.375 30.515625 26.90625 33.984375 
Q 19.625 30.859375 16.359375 27.078125 
Q 13.09375 23.296875 13.09375 18.015625 
z
M 28.421875 65.828125 
Q 22.3125 65.828125 18.84375 62.890625 
Q 15.375 59.96875 15.375 55.078125 
Q 15.375 50.59375 18.25 47.359375 
Q 21.140625 44.140625 28.90625 40.921875 
Q 35.890625 43.84375 38.796875 47.21875 
Q 41.703125 50.59375 41.703125 55.078125 
Q 41.703125 60.015625 38.15625 62.921875 
Q 34.625 65.828125 28.421875 65.828125 
z
" id="OpenSans-56"/>
      </defs>
      <g style="fill:#262626;" transform="translate(84.214689 309.716792)rotate(-45)scale(0.12 -0.12)">
       <use xlink:href="#OpenSans-50"/>
       <use x="57.177734" xlink:href="#OpenSans-48"/>
       <use x="114.355469" xlink:href="#OpenSans-50"/>
       <use x="171.533203" xlink:href="#OpenSans-48"/>
       <use x="228.710938" xlink:href="#OpenSans-45"/>
       <use x="260.888672" xlink:href="#OpenSans-48"/>
       <use x="318.066406" xlink:href="#OpenSans-57"/>
       <use x="375.244141" xlink:href="#OpenSans-45"/>
       <use x="407.421875" xlink:href="#OpenSans-48"/>
       <use x="464.599609" xlink:href="#OpenSans-56"/>
      </g>
     </g>
    </g>
    <g id="xtick_3">
     <g id="line2d_3"/>
     <g id="text_3">
      <!-- 2020-09-15 -->
      <defs>
       <path d="M 27.203125 43.609375 
Q 38.484375 43.609375 44.953125 38.015625 
Q 51.421875 32.421875 51.421875 22.703125 
Q 51.421875 11.625 44.359375 5.3125 
Q 37.3125 -0.984375 24.90625 -0.984375 
Q 12.84375 -0.984375 6.5 2.875 
L 6.5 10.6875 
Q 9.90625 8.5 14.984375 7.25 
Q 20.0625 6 25 6 
Q 33.59375 6 38.34375 10.046875 
Q 43.109375 14.109375 43.109375 21.78125 
Q 43.109375 36.71875 24.8125 36.71875 
Q 20.171875 36.71875 12.40625 35.296875 
L 8.203125 37.984375 
L 10.890625 71.390625 
L 46.390625 71.390625 
L 46.390625 63.921875 
L 17.828125 63.921875 
L 16.015625 42.484375 
Q 21.625 43.609375 27.203125 43.609375 
z
" id="OpenSans-53"/>
      </defs>
      <g style="fill:#262626;" transform="translate(119.141664 309.716792)rotate(-45)scale(0.12 -0.12)">
       <use xlink:href="#OpenSans-50"/>
       <use x="57.177734" xlink:href="#OpenSans-48"/>
       <use x="114.355469" xlink:href="#OpenSans-50"/>
       <use x="171.533203" xlink:href="#OpenSans-48"/>
       <use x="228.710938" xlink:href="#OpenSans-45"/>
       <use x="260.888672" xlink:href="#OpenSans-48"/>
       <use x="318.066406" xlink:href="#OpenSans-57"/>
       <use x="375.244141" xlink:href="#OpenSans-45"/>
       <use x="407.421875" xlink:href="#OpenSans-49"/>
       <use x="464.599609" xlink:href="#OpenSans-53"/>
      </g>
     </g>
    </g>
    <g id="xtick_4">
     <g id="line2d_4"/>
     <g id="text_4">
      <!-- 2020-09-22 -->
      <g style="fill:#262626;" transform="translate(154.068638 309.716792)rotate(-45)scale(0.12 -0.12)">
       <use xlink:href="#OpenSans-50"/>
       <use x="57.177734" xlink:href="#OpenSans-48"/>
       <use x="114.355469" xlink:href="#OpenSans-50"/>
       <use x="171.533203" xlink:href="#OpenSans-48"/>
       <use x="228.710938" xlink:href="#OpenSans-45"/>
       <use x="260.888672" xlink:href="#OpenSans-48"/>
       <use x="318.066406" xlink:href="#OpenSans-57"/>
       <use x="375.244141" xlink:href="#OpenSans-45"/>
       <use x="407.421875" xlink:href="#OpenSans-50"/>
       <use x="464.599609" xlink:href="#OpenSans-50"/>
      </g>
     </g>
    </g>
    <g id="xtick_5">
     <g id="line2d_5"/>
     <g id="text_5">
      <!-- 2020-10-01 -->
      <g style="fill:#262626;" transform="translate(198.974749 309.716792)rotate(-45)scale(0.12 -0.12)">
       <use xlink:href="#OpenSans-50"/>
       <use x="57.177734" xlink:href="#OpenSans-48"/>
       <use x="114.355469" xlink:href="#OpenSans-50"/>
       <use x="171.533203" xlink:href="#OpenSans-48"/>
       <use x="228.710938" xlink:href="#OpenSans-45"/>
       <use x="260.888672" xlink:href="#OpenSans-49"/>
       <use x="318.066406" xlink:href="#OpenSans-48"/>
       <use x="375.244141" xlink:href="#OpenSans-45"/>
       <use x="407.421875" xlink:href="#OpenSans-48"/>
       <use x="464.599609" xlink:href="#OpenSans-49"/>
      </g>
     </g>
    </g>
    <g id="xtick_6">
     <g id="line2d_6"/>
     <g id="text_6">
      <!-- 2020-10-08 -->
      <g style="fill:#262626;" transform="translate(233.901723 309.716792)rotate(-45)scale(0.12 -0.12)">
       <use xlink:href="#OpenSans-50"/>
       <use x="57.177734" xlink:href="#OpenSans-48"/>
       <use x="114.355469" xlink:href="#OpenSans-50"/>
       <use x="171.533203" xlink:href="#OpenSans-48"/>
       <use x="228.710938" xlink:href="#OpenSans-45"/>
       <use x="260.888672" xlink:href="#OpenSans-49"/>
       <use x="318.066406" xlink:href="#OpenSans-48"/>
       <use x="375.244141" xlink:href="#OpenSans-45"/>
       <use x="407.421875" xlink:href="#OpenSans-48"/>
       <use x="464.599609" xlink:href="#OpenSans-56"/>
      </g>
     </g>
    </g>
    <g id="xtick_7">
     <g id="line2d_7"/>
     <g id="text_7">
      <!-- 2020-10-15 -->
      <g style="fill:#262626;" transform="translate(268.828698 309.716792)rotate(-45)scale(0.12 -0.12)">
       <use xlink:href="#OpenSans-50"/>
       <use x="57.177734" xlink:href="#OpenSans-48"/>
       <use x="114.355469" xlink:href="#OpenSans-50"/>
       <use x="171.533203" xlink:href="#OpenSans-48"/>
       <use x="228.710938" xlink:href="#OpenSans-45"/>
       <use x="260.888672" xlink:href="#OpenSans-49"/>
       <use x="318.066406" xlink:href="#OpenSans-48"/>
       <use x="375.244141" xlink:href="#OpenSans-45"/>
       <use x="407.421875" xlink:href="#OpenSans-49"/>
       <use x="464.599609" xlink:href="#OpenSans-53"/>
      </g>
     </g>
    </g>
    <g id="xtick_8">
     <g id="line2d_8"/>
     <g id="text_8">
      <!-- 2020-10-22 -->
      <g style="fill:#262626;" transform="translate(303.755673 309.716792)rotate(-45)scale(0.12 -0.12)">
       <use xlink:href="#OpenSans-50"/>
       <use x="57.177734" xlink:href="#OpenSans-48"/>
       <use x="114.355469" xlink:href="#OpenSans-50"/>
       <use x="171.533203" xlink:href="#OpenSans-48"/>
       <use x="228.710938" xlink:href="#OpenSans-45"/>
       <use x="260.888672" xlink:href="#OpenSans-49"/>
       <use x="318.066406" xlink:href="#OpenSans-48"/>
       <use x="375.244141" xlink:href="#OpenSans-45"/>
       <use x="407.421875" xlink:href="#OpenSans-50"/>
       <use x="464.599609" xlink:href="#OpenSans-50"/>
      </g>
     </g>
    </g>
    <g id="xtick_9">
     <g id="line2d_9"/>
     <g id="text_9">
      <!-- 2020-11-01 -->
      <g style="fill:#262626;" transform="translate(353.651351 309.716792)rotate(-45)scale(0.12 -0.12)">
       <use xlink:href="#OpenSans-50"/>
       <use x="57.177734" xlink:href="#OpenSans-48"/>
       <use x="114.355469" xlink:href="#OpenSans-50"/>
       <use x="171.533203" xlink:href="#OpenSans-48"/>
       <use x="228.710938" xlink:href="#OpenSans-45"/>
       <use x="260.888672" xlink:href="#OpenSans-49"/>
       <use x="318.066406" xlink:href="#OpenSans-49"/>
       <use x="375.244141" xlink:href="#OpenSans-45"/>
       <use x="407.421875" xlink:href="#OpenSans-48"/>
       <use x="464.599609" xlink:href="#OpenSans-49"/>
      </g>
     </g>
    </g>
   </g>
   <g id="matplotlib.axis_2">
    <g id="ytick_1">
     <g id="line2d_10"/>
     <g id="text_10">
      <!-- 0 -->
      <g style="fill:#262626;" transform="translate(40.139375 246.675426)scale(0.12 -0.12)">
       <use xlink:href="#OpenSans-48"/>
      </g>
     </g>
    </g>
    <g id="ytick_2">
     <g id="line2d_11"/>
     <g id="text_11">
      <!-- 2 -->
      <g style="fill:#262626;" transform="translate(40.139375 216.715556)scale(0.12 -0.12)">
       <use xlink:href="#OpenSans-50"/>
      </g>
     </g>
    </g>
    <g id="ytick_3">
     <g id="line2d_12"/>
     <g id="text_12">
      <!-- 4 -->
      <defs>
       <path d="M 55.171875 16.40625 
L 44.578125 16.40625 
L 44.578125 0 
L 36.8125 0 
L 36.8125 16.40625 
L 2.09375 16.40625 
L 2.09375 23.484375 
L 35.984375 71.78125 
L 44.578125 71.78125 
L 44.578125 23.78125 
L 55.171875 23.78125 
z
M 36.8125 23.78125 
L 36.8125 47.515625 
Q 36.8125 54.5 37.3125 63.28125 
L 36.921875 63.28125 
Q 34.578125 58.59375 32.515625 55.515625 
L 10.203125 23.78125 
z
" id="OpenSans-52"/>
      </defs>
      <g style="fill:#262626;" transform="translate(40.139375 186.755686)scale(0.12 -0.12)">
       <use xlink:href="#OpenSans-52"/>
      </g>
     </g>
    </g>
    <g id="ytick_4">
     <g id="line2d_13"/>
     <g id="text_13">
      <!-- 6 -->
      <defs>
       <path d="M 5.71875 30.515625 
Q 5.71875 51.5625 13.890625 61.984375 
Q 22.078125 72.40625 38.09375 72.40625 
Q 43.609375 72.40625 46.78125 71.484375 
L 46.78125 64.5 
Q 43.015625 65.71875 38.1875 65.71875 
Q 26.703125 65.71875 20.640625 58.5625 
Q 14.59375 51.421875 14.015625 36.078125 
L 14.59375 36.078125 
Q 19.96875 44.484375 31.59375 44.484375 
Q 41.21875 44.484375 46.75 38.671875 
Q 52.296875 32.859375 52.296875 22.90625 
Q 52.296875 11.765625 46.21875 5.390625 
Q 40.140625 -0.984375 29.78125 -0.984375 
Q 18.703125 -0.984375 12.203125 7.34375 
Q 5.71875 15.671875 5.71875 30.515625 
z
M 29.6875 5.90625 
Q 36.625 5.90625 40.453125 10.28125 
Q 44.28125 14.65625 44.28125 22.90625 
Q 44.28125 29.984375 40.71875 34.03125 
Q 37.15625 38.09375 30.078125 38.09375 
Q 25.6875 38.09375 22.015625 36.28125 
Q 18.359375 34.46875 16.1875 31.296875 
Q 14.015625 28.125 14.015625 24.703125 
Q 14.015625 19.671875 15.96875 15.328125 
Q 17.921875 10.984375 21.5 8.4375 
Q 25.09375 5.90625 29.6875 5.90625 
z
" id="OpenSans-54"/>
      </defs>
      <g style="fill:#262626;" transform="translate(40.139375 156.795815)scale(0.12 -0.12)">
       <use xlink:href="#OpenSans-54"/>
      </g>
     </g>
    </g>
    <g id="ytick_5">
     <g id="line2d_14"/>
     <g id="text_14">
      <!-- 8 -->
      <g style="fill:#262626;" transform="translate(40.139375 126.835945)scale(0.12 -0.12)">
       <use xlink:href="#OpenSans-56"/>
      </g>
     </g>
    </g>
    <g id="ytick_6">
     <g id="line2d_15"/>
     <g id="text_15">
      <!-- 10 -->
      <g style="fill:#262626;" transform="translate(33.27875 96.876075)scale(0.12 -0.12)">
       <use xlink:href="#OpenSans-49"/>
       <use x="57.177734" xlink:href="#OpenSans-48"/>
      </g>
     </g>
    </g>
    <g id="ytick_7">
     <g id="line2d_16"/>
     <g id="text_16">
      <!-- 12 -->
      <g style="fill:#262626;" transform="translate(33.27875 66.916205)scale(0.12 -0.12)">
       <use xlink:href="#OpenSans-49"/>
       <use x="57.177734" xlink:href="#OpenSans-50"/>
      </g>
     </g>
    </g>
    <g id="text_17">
     <!-- Hours Spent Programing  -->
     <defs>
      <path d="M 64.015625 0 
L 55.71875 0 
L 55.71875 33.59375 
L 18.109375 33.59375 
L 18.109375 0 
L 9.8125 0 
L 9.8125 71.390625 
L 18.109375 71.390625 
L 18.109375 41.015625 
L 55.71875 41.015625 
L 55.71875 71.390625 
L 64.015625 71.390625 
z
" id="OpenSans-72"/>
      <path d="M 54.78125 26.8125 
Q 54.78125 13.71875 48.1875 6.359375 
Q 41.609375 -0.984375 29.984375 -0.984375 
Q 22.796875 -0.984375 17.234375 2.390625 
Q 11.671875 5.765625 8.640625 12.0625 
Q 5.609375 18.359375 5.609375 26.8125 
Q 5.609375 39.890625 12.15625 47.1875 
Q 18.703125 54.5 30.328125 54.5 
Q 41.546875 54.5 48.15625 47.015625 
Q 54.78125 39.546875 54.78125 26.8125 
z
M 14.015625 26.8125 
Q 14.015625 16.546875 18.109375 11.171875 
Q 22.21875 5.8125 30.171875 5.8125 
Q 38.140625 5.8125 42.265625 11.15625 
Q 46.390625 16.5 46.390625 26.8125 
Q 46.390625 37.015625 42.265625 42.3125 
Q 38.140625 47.609375 30.078125 47.609375 
Q 22.125 47.609375 18.0625 42.375 
Q 14.015625 37.15625 14.015625 26.8125 
z
" id="OpenSans-111"/>
      <path d="M 16.21875 53.515625 
L 16.21875 18.796875 
Q 16.21875 12.25 19.1875 9.03125 
Q 22.171875 5.8125 28.515625 5.8125 
Q 36.921875 5.8125 40.796875 10.390625 
Q 44.671875 14.984375 44.671875 25.390625 
L 44.671875 53.515625 
L 52.78125 53.515625 
L 52.78125 0 
L 46.09375 0 
L 44.921875 7.171875 
L 44.484375 7.171875 
Q 42 3.21875 37.578125 1.109375 
Q 33.15625 -0.984375 27.484375 -0.984375 
Q 17.71875 -0.984375 12.859375 3.65625 
Q 8.015625 8.296875 8.015625 18.5 
L 8.015625 53.515625 
z
" id="OpenSans-117"/>
      <path d="M 33.015625 54.5 
Q 36.578125 54.5 39.40625 53.90625 
L 38.28125 46.390625 
Q 34.96875 47.125 32.421875 47.125 
Q 25.921875 47.125 21.3125 41.84375 
Q 16.703125 36.578125 16.703125 28.71875 
L 16.703125 0 
L 8.59375 0 
L 8.59375 53.515625 
L 15.28125 53.515625 
L 16.21875 43.609375 
L 16.609375 43.609375 
Q 19.578125 48.828125 23.78125 51.65625 
Q 27.984375 54.5 33.015625 54.5 
z
" id="OpenSans-114"/>
      <path d="M 43.109375 14.59375 
Q 43.109375 7.125 37.546875 3.0625 
Q 31.984375 -0.984375 21.921875 -0.984375 
Q 11.28125 -0.984375 5.328125 2.390625 
L 5.328125 9.90625 
Q 9.1875 7.953125 13.59375 6.828125 
Q 18.015625 5.71875 22.125 5.71875 
Q 28.46875 5.71875 31.875 7.734375 
Q 35.296875 9.765625 35.296875 13.921875 
Q 35.296875 17.046875 32.59375 19.265625 
Q 29.890625 21.484375 22.015625 24.515625 
Q 14.546875 27.296875 11.390625 29.375 
Q 8.25 31.453125 6.703125 34.078125 
Q 5.171875 36.71875 5.171875 40.375 
Q 5.171875 46.921875 10.5 50.703125 
Q 15.828125 54.5 25.09375 54.5 
Q 33.734375 54.5 42 50.984375 
L 39.109375 44.390625 
Q 31.0625 47.703125 24.515625 47.703125 
Q 18.75 47.703125 15.8125 45.890625 
Q 12.890625 44.09375 12.890625 40.921875 
Q 12.890625 38.765625 13.984375 37.25 
Q 15.09375 35.75 17.53125 34.375 
Q 19.96875 33.015625 26.90625 30.421875 
Q 36.421875 26.953125 39.765625 23.4375 
Q 43.109375 19.921875 43.109375 14.59375 
z
" id="OpenSans-115"/>
      <path id="OpenSans-32"/>
      <path d="M 50.09375 19 
Q 50.09375 9.578125 43.25 4.296875 
Q 36.421875 -0.984375 24.703125 -0.984375 
Q 12.015625 -0.984375 5.171875 2.296875 
L 5.171875 10.296875 
Q 9.578125 8.453125 14.75 7.375 
Q 19.921875 6.296875 25 6.296875 
Q 33.296875 6.296875 37.5 9.4375 
Q 41.703125 12.59375 41.703125 18.21875 
Q 41.703125 21.921875 40.203125 24.28125 
Q 38.71875 26.65625 35.21875 28.65625 
Q 31.734375 30.671875 24.609375 33.203125 
Q 14.65625 36.765625 10.375 41.640625 
Q 6.109375 46.53125 6.109375 54.390625 
Q 6.109375 62.640625 12.296875 67.515625 
Q 18.5 72.40625 28.71875 72.40625 
Q 39.359375 72.40625 48.296875 68.5 
L 45.703125 61.28125 
Q 36.859375 64.984375 28.515625 64.984375 
Q 21.921875 64.984375 18.203125 62.15625 
Q 14.5 59.328125 14.5 54.296875 
Q 14.5 50.59375 15.859375 48.21875 
Q 17.234375 45.84375 20.484375 43.859375 
Q 23.734375 41.890625 30.421875 39.5 
Q 41.65625 35.5 45.875 30.90625 
Q 50.09375 26.3125 50.09375 19 
z
" id="OpenSans-83"/>
      <path d="M 33.5 -0.984375 
Q 28.265625 -0.984375 23.9375 0.9375 
Q 19.625 2.875 16.703125 6.890625 
L 16.109375 6.890625 
Q 16.703125 2.203125 16.703125 -2 
L 16.703125 -24.03125 
L 8.59375 -24.03125 
L 8.59375 53.515625 
L 15.1875 53.515625 
L 16.3125 46.1875 
L 16.703125 46.1875 
Q 19.828125 50.59375 23.96875 52.546875 
Q 28.125 54.5 33.5 54.5 
Q 44.140625 54.5 49.921875 47.21875 
Q 55.71875 39.9375 55.71875 26.8125 
Q 55.71875 13.625 49.828125 6.3125 
Q 43.953125 -0.984375 33.5 -0.984375 
z
M 32.328125 47.609375 
Q 24.125 47.609375 20.453125 43.0625 
Q 16.796875 38.53125 16.703125 28.609375 
L 16.703125 26.8125 
Q 16.703125 15.53125 20.453125 10.671875 
Q 24.21875 5.8125 32.515625 5.8125 
Q 39.453125 5.8125 43.375 11.421875 
Q 47.3125 17.046875 47.3125 26.90625 
Q 47.3125 36.921875 43.375 42.265625 
Q 39.453125 47.609375 32.328125 47.609375 
z
" id="OpenSans-112"/>
      <path d="M 31.203125 -0.984375 
Q 19.34375 -0.984375 12.46875 6.25 
Q 5.609375 13.484375 5.609375 26.3125 
Q 5.609375 39.265625 11.984375 46.875 
Q 18.359375 54.5 29.109375 54.5 
Q 39.15625 54.5 45.015625 47.875 
Q 50.875 41.265625 50.875 30.421875 
L 50.875 25.296875 
L 14.015625 25.296875 
Q 14.265625 15.875 18.78125 10.984375 
Q 23.296875 6.109375 31.5 6.109375 
Q 40.140625 6.109375 48.578125 9.71875 
L 48.578125 2.484375 
Q 44.28125 0.640625 40.453125 -0.171875 
Q 36.625 -0.984375 31.203125 -0.984375 
z
M 29 47.703125 
Q 22.5625 47.703125 18.71875 43.5 
Q 14.890625 39.3125 14.203125 31.890625 
L 42.1875 31.890625 
Q 42.1875 39.546875 38.765625 43.625 
Q 35.359375 47.703125 29 47.703125 
z
" id="OpenSans-101"/>
      <path d="M 45.21875 0 
L 45.21875 34.625 
Q 45.21875 41.15625 42.234375 44.375 
Q 39.265625 47.609375 32.90625 47.609375 
Q 24.515625 47.609375 20.609375 43.0625 
Q 16.703125 38.53125 16.703125 28.078125 
L 16.703125 0 
L 8.59375 0 
L 8.59375 53.515625 
L 15.1875 53.515625 
L 16.5 46.1875 
L 16.890625 46.1875 
Q 19.390625 50.140625 23.875 52.3125 
Q 28.375 54.5 33.890625 54.5 
Q 43.5625 54.5 48.4375 49.828125 
Q 53.328125 45.171875 53.328125 34.90625 
L 53.328125 0 
z
" id="OpenSans-110"/>
      <path d="M 25.875 5.71875 
Q 28.03125 5.71875 30.03125 6.03125 
Q 32.03125 6.34375 33.203125 6.6875 
L 33.203125 0.484375 
Q 31.890625 -0.140625 29.328125 -0.5625 
Q 26.765625 -0.984375 24.703125 -0.984375 
Q 9.1875 -0.984375 9.1875 15.375 
L 9.1875 47.21875 
L 1.515625 47.21875 
L 1.515625 51.125 
L 9.1875 54.5 
L 12.59375 65.921875 
L 17.28125 65.921875 
L 17.28125 53.515625 
L 32.8125 53.515625 
L 32.8125 47.21875 
L 17.28125 47.21875 
L 17.28125 15.71875 
Q 17.28125 10.890625 19.578125 8.296875 
Q 21.875 5.71875 25.875 5.71875 
z
" id="OpenSans-116"/>
      <path d="M 55.078125 50.59375 
Q 55.078125 39.75 47.671875 33.90625 
Q 40.28125 28.078125 26.515625 28.078125 
L 18.109375 28.078125 
L 18.109375 0 
L 9.8125 0 
L 9.8125 71.390625 
L 28.328125 71.390625 
Q 55.078125 71.390625 55.078125 50.59375 
z
M 18.109375 35.203125 
L 25.59375 35.203125 
Q 36.625 35.203125 41.546875 38.765625 
Q 46.484375 42.328125 46.484375 50.203125 
Q 46.484375 57.28125 41.84375 60.734375 
Q 37.203125 64.203125 27.390625 64.203125 
L 18.109375 64.203125 
z
" id="OpenSans-80"/>
      <path d="M 52.390625 53.515625 
L 52.390625 48.390625 
L 42.484375 47.21875 
Q 43.84375 45.515625 44.921875 42.75 
Q 46 39.984375 46 36.53125 
Q 46 28.65625 40.625 23.96875 
Q 35.25 19.28125 25.875 19.28125 
Q 23.484375 19.28125 21.390625 19.671875 
Q 16.21875 16.9375 16.21875 12.796875 
Q 16.21875 10.59375 18.015625 9.546875 
Q 19.828125 8.5 24.21875 8.5 
L 33.6875 8.5 
Q 42.390625 8.5 47.046875 4.828125 
Q 51.703125 1.171875 51.703125 -5.8125 
Q 51.703125 -14.703125 44.578125 -19.359375 
Q 37.453125 -24.03125 23.78125 -24.03125 
Q 13.28125 -24.03125 7.59375 -20.125 
Q 1.90625 -16.21875 1.90625 -9.078125 
Q 1.90625 -4.203125 5.03125 -0.625 
Q 8.15625 2.9375 13.8125 4.203125 
Q 11.765625 5.125 10.375 7.078125 
Q 8.984375 9.03125 8.984375 11.625 
Q 8.984375 14.546875 10.546875 16.75 
Q 12.109375 18.953125 15.484375 21 
Q 11.328125 22.703125 8.71875 26.796875 
Q 6.109375 30.90625 6.109375 36.1875 
Q 6.109375 44.96875 11.375 49.734375 
Q 16.65625 54.5 26.3125 54.5 
Q 30.515625 54.5 33.890625 53.515625 
z
M 9.71875 -8.984375 
Q 9.71875 -13.328125 13.375 -15.578125 
Q 17.046875 -17.828125 23.875 -17.828125 
Q 34.078125 -17.828125 38.984375 -14.765625 
Q 43.890625 -11.71875 43.890625 -6.5 
Q 43.890625 -2.15625 41.203125 -0.46875 
Q 38.53125 1.21875 31.109375 1.21875 
L 21.390625 1.21875 
Q 15.875 1.21875 12.796875 -1.40625 
Q 9.71875 -4.046875 9.71875 -8.984375 
z
M 14.109375 36.375 
Q 14.109375 30.765625 17.28125 27.875 
Q 20.453125 25 26.125 25 
Q 37.984375 25 37.984375 36.53125 
Q 37.984375 48.578125 25.984375 48.578125 
Q 20.265625 48.578125 17.1875 45.5 
Q 14.109375 42.4375 14.109375 36.375 
z
" id="OpenSans-103"/>
      <path d="M 41.5 0 
L 39.890625 7.625 
L 39.5 7.625 
Q 35.5 2.59375 31.515625 0.796875 
Q 27.546875 -0.984375 21.578125 -0.984375 
Q 13.625 -0.984375 9.109375 3.125 
Q 4.59375 7.234375 4.59375 14.796875 
Q 4.59375 31 30.515625 31.78125 
L 39.59375 32.078125 
L 39.59375 35.40625 
Q 39.59375 41.703125 36.890625 44.703125 
Q 34.1875 47.703125 28.21875 47.703125 
Q 21.53125 47.703125 13.09375 43.609375 
L 10.59375 49.8125 
Q 14.546875 51.953125 19.25 53.171875 
Q 23.96875 54.390625 28.71875 54.390625 
Q 38.28125 54.390625 42.890625 50.140625 
Q 47.515625 45.90625 47.515625 36.53125 
L 47.515625 0 
z
M 23.1875 5.71875 
Q 30.765625 5.71875 35.078125 9.859375 
Q 39.40625 14.015625 39.40625 21.484375 
L 39.40625 26.3125 
L 31.296875 25.984375 
Q 21.625 25.640625 17.359375 22.96875 
Q 13.09375 20.3125 13.09375 14.703125 
Q 13.09375 10.296875 15.75 8 
Q 18.40625 5.71875 23.1875 5.71875 
z
" id="OpenSans-97"/>
      <path d="M 76.8125 0 
L 76.8125 34.8125 
Q 76.8125 41.21875 74.078125 44.40625 
Q 71.34375 47.609375 65.578125 47.609375 
Q 58.015625 47.609375 54.390625 43.265625 
Q 50.78125 38.921875 50.78125 29.890625 
L 50.78125 0 
L 42.671875 0 
L 42.671875 34.8125 
Q 42.671875 41.21875 39.9375 44.40625 
Q 37.203125 47.609375 31.390625 47.609375 
Q 23.78125 47.609375 20.234375 43.046875 
Q 16.703125 38.484375 16.703125 28.078125 
L 16.703125 0 
L 8.59375 0 
L 8.59375 53.515625 
L 15.1875 53.515625 
L 16.5 46.1875 
L 16.890625 46.1875 
Q 19.1875 50.09375 23.359375 52.296875 
Q 27.546875 54.5 32.71875 54.5 
Q 45.265625 54.5 49.125 45.40625 
L 49.515625 45.40625 
Q 51.90625 49.609375 56.4375 52.046875 
Q 60.984375 54.5 66.796875 54.5 
Q 75.875 54.5 80.390625 49.828125 
Q 84.90625 45.171875 84.90625 34.90625 
L 84.90625 0 
z
" id="OpenSans-109"/>
      <path d="M 16.703125 0 
L 8.59375 0 
L 8.59375 53.515625 
L 16.703125 53.515625 
z
M 7.90625 68.015625 
Q 7.90625 70.796875 9.265625 72.09375 
Q 10.640625 73.390625 12.703125 73.390625 
Q 14.65625 73.390625 16.0625 72.0625 
Q 17.484375 70.75 17.484375 68.015625 
Q 17.484375 65.28125 16.0625 63.9375 
Q 14.65625 62.59375 12.703125 62.59375 
Q 10.640625 62.59375 9.265625 63.9375 
Q 7.90625 65.28125 7.90625 68.015625 
z
" id="OpenSans-105"/>
     </defs>
     <g style="fill:#262626;" transform="translate(12.5695 213.7275)rotate(-90)scale(0.12 -0.12)">
      <use xlink:href="#OpenSans-72"/>
      <use x="73.779297" xlink:href="#OpenSans-111"/>
      <use x="134.179688" xlink:href="#OpenSans-117"/>
      <use x="195.556641" xlink:href="#OpenSans-114"/>
      <use x="236.376953" xlink:href="#OpenSans-115"/>
      <use x="284.082031" xlink:href="#OpenSans-32"/>
      <use x="310.058594" xlink:href="#OpenSans-83"/>
      <use x="364.941406" xlink:href="#OpenSans-112"/>
      <use x="426.220703" xlink:href="#OpenSans-101"/>
      <use x="482.324219" xlink:href="#OpenSans-110"/>
      <use x="543.701172" xlink:href="#OpenSans-116"/>
      <use x="579.003906" xlink:href="#OpenSans-32"/>
      <use x="604.980469" xlink:href="#OpenSans-80"/>
      <use x="665.185547" xlink:href="#OpenSans-114"/>
      <use x="704.005859" xlink:href="#OpenSans-111"/>
      <use x="764.40625" xlink:href="#OpenSans-103"/>
      <use x="819.191406" xlink:href="#OpenSans-114"/>
      <use x="858.011719" xlink:href="#OpenSans-97"/>
      <use x="913.626953" xlink:href="#OpenSans-109"/>
      <use x="1006.644531" xlink:href="#OpenSans-105"/>
      <use x="1031.9375" xlink:href="#OpenSans-110"/>
      <use x="1093.314453" xlink:href="#OpenSans-103"/>
      <use x="1148.099609" xlink:href="#OpenSans-32"/>
     </g>
     <!--  (IDE + Terminal + localhost) -->
     <defs>
      <path d="M 4 27.390625 
Q 4 40.328125 7.78125 51.609375 
Q 11.578125 62.890625 18.703125 71.390625 
L 26.609375 71.390625 
Q 19.578125 61.96875 16.03125 50.6875 
Q 12.5 39.40625 12.5 27.484375 
Q 12.5 15.765625 16.109375 4.578125 
Q 19.734375 -6.59375 26.515625 -15.828125 
L 18.703125 -15.828125 
Q 11.53125 -7.515625 7.765625 3.5625 
Q 4 14.65625 4 27.390625 
z
" id="OpenSans-40"/>
      <path d="M 9.8125 0 
L 9.8125 71.390625 
L 18.109375 71.390625 
L 18.109375 0 
z
" id="OpenSans-73"/>
      <path d="M 66.796875 36.375 
Q 66.796875 18.703125 57.203125 9.34375 
Q 47.609375 0 29.59375 0 
L 9.8125 0 
L 9.8125 71.390625 
L 31.6875 71.390625 
Q 48.34375 71.390625 57.5625 62.15625 
Q 66.796875 52.9375 66.796875 36.375 
z
M 58.015625 36.078125 
Q 58.015625 50.046875 51 57.125 
Q 44 64.203125 30.171875 64.203125 
L 18.109375 64.203125 
L 18.109375 7.171875 
L 28.21875 7.171875 
Q 43.0625 7.171875 50.53125 14.46875 
Q 58.015625 21.78125 58.015625 36.078125 
z
" id="OpenSans-68"/>
      <path d="M 49.609375 0 
L 9.8125 0 
L 9.8125 71.390625 
L 49.609375 71.390625 
L 49.609375 64.015625 
L 18.109375 64.015625 
L 18.109375 41.015625 
L 47.703125 41.015625 
L 47.703125 33.6875 
L 18.109375 33.6875 
L 18.109375 7.421875 
L 49.609375 7.421875 
z
" id="OpenSans-69"/>
      <path d="M 31.890625 38.625 
L 52 38.625 
L 52 31.890625 
L 31.890625 31.890625 
L 31.890625 11.078125 
L 25.09375 11.078125 
L 25.09375 31.890625 
L 5.078125 31.890625 
L 5.078125 38.625 
L 25.09375 38.625 
L 25.09375 59.515625 
L 31.890625 59.515625 
z
" id="OpenSans-43"/>
      <path d="M 31.78125 0 
L 23.484375 0 
L 23.484375 64.015625 
L 0.875 64.015625 
L 0.875 71.390625 
L 54.390625 71.390625 
L 54.390625 64.015625 
L 31.78125 64.015625 
z
" id="OpenSans-84"/>
      <path d="M 16.703125 0 
L 8.59375 0 
L 8.59375 75.984375 
L 16.703125 75.984375 
z
" id="OpenSans-108"/>
      <path d="M 29.984375 -0.984375 
Q 18.359375 -0.984375 11.984375 6.171875 
Q 5.609375 13.328125 5.609375 26.421875 
Q 5.609375 39.84375 12.078125 47.171875 
Q 18.5625 54.5 30.515625 54.5 
Q 34.375 54.5 38.234375 53.65625 
Q 42.09375 52.828125 44.28125 51.703125 
L 41.796875 44.828125 
Q 39.109375 45.90625 35.9375 46.609375 
Q 32.765625 47.3125 30.328125 47.3125 
Q 14.015625 47.3125 14.015625 26.515625 
Q 14.015625 16.65625 17.984375 11.375 
Q 21.96875 6.109375 29.78125 6.109375 
Q 36.46875 6.109375 43.5 8.984375 
L 43.5 1.8125 
Q 38.140625 -0.984375 29.984375 -0.984375 
z
" id="OpenSans-99"/>
      <path d="M 45.21875 0 
L 45.21875 34.625 
Q 45.21875 41.15625 42.234375 44.375 
Q 39.265625 47.609375 32.90625 47.609375 
Q 24.46875 47.609375 20.578125 43.015625 
Q 16.703125 38.421875 16.703125 27.984375 
L 16.703125 0 
L 8.59375 0 
L 8.59375 75.984375 
L 16.703125 75.984375 
L 16.703125 52.984375 
Q 16.703125 48.828125 16.3125 46.09375 
L 16.796875 46.09375 
Q 19.1875 49.953125 23.609375 52.171875 
Q 28.03125 54.390625 33.6875 54.390625 
Q 43.5 54.390625 48.40625 49.71875 
Q 53.328125 45.0625 53.328125 34.90625 
L 53.328125 0 
z
" id="OpenSans-104"/>
      <path d="M 25.59375 27.390625 
Q 25.59375 14.546875 21.796875 3.453125 
Q 18.015625 -7.625 10.890625 -15.828125 
L 3.078125 -15.828125 
Q 9.859375 -6.640625 13.46875 4.5625 
Q 17.09375 15.765625 17.09375 27.484375 
Q 17.09375 39.40625 13.546875 50.6875 
Q 10.015625 61.96875 2.984375 71.390625 
L 10.890625 71.390625 
Q 18.0625 62.84375 21.828125 51.53125 
Q 25.59375 40.234375 25.59375 27.390625 
z
" id="OpenSans-41"/>
     </defs>
     <g style="fill:#262626;" transform="translate(26.395 220.362188)rotate(-90)scale(0.12 -0.12)">
      <use xlink:href="#OpenSans-32"/>
      <use x="25.976562" xlink:href="#OpenSans-40"/>
      <use x="55.566406" xlink:href="#OpenSans-73"/>
      <use x="83.447266" xlink:href="#OpenSans-68"/>
      <use x="156.347656" xlink:href="#OpenSans-69"/>
      <use x="211.962891" xlink:href="#OpenSans-32"/>
      <use x="237.939453" xlink:href="#OpenSans-43"/>
      <use x="295.117188" xlink:href="#OpenSans-32"/>
      <use x="321.09375" xlink:href="#OpenSans-84"/>
      <use x="369.416016" xlink:href="#OpenSans-101"/>
      <use x="425.519531" xlink:href="#OpenSans-114"/>
      <use x="466.339844" xlink:href="#OpenSans-109"/>
      <use x="559.357422" xlink:href="#OpenSans-105"/>
      <use x="584.650391" xlink:href="#OpenSans-110"/>
      <use x="646.027344" xlink:href="#OpenSans-97"/>
      <use x="701.642578" xlink:href="#OpenSans-108"/>
      <use x="726.935547" xlink:href="#OpenSans-32"/>
      <use x="752.912109" xlink:href="#OpenSans-43"/>
      <use x="810.089844" xlink:href="#OpenSans-32"/>
      <use x="836.066406" xlink:href="#OpenSans-108"/>
      <use x="861.359375" xlink:href="#OpenSans-111"/>
      <use x="921.759766" xlink:href="#OpenSans-99"/>
      <use x="969.367188" xlink:href="#OpenSans-97"/>
      <use x="1024.982422" xlink:href="#OpenSans-108"/>
      <use x="1050.275391" xlink:href="#OpenSans-104"/>
      <use x="1111.652344" xlink:href="#OpenSans-111"/>
      <use x="1172.052734" xlink:href="#OpenSans-115"/>
      <use x="1219.757812" xlink:href="#OpenSans-116"/>
      <use x="1255.060547" xlink:href="#OpenSans-41"/>
     </g>
    </g>
   </g>
   <g id="line2d_17">
    <path clip-path="url(#p3b8ff92cad)" d="M 69.218182 56.598189 
L 74.20775 91.513921 
L 79.197317 128.664161 
L 84.186885 210.824944 
L 89.176453 222.184728 
L 94.166021 215.697584 
L 99.155589 227.943681 
L 104.145156 120.254591 
L 109.134724 64.054868 
L 114.124292 96.30334 
L 119.11386 128.364562 
L 124.103428 104.059617 
L 129.092996 183.694617 
L 134.082563 116.239137 
L 139.072131 132.692099 
L 144.061699 134.71439 
L 149.051267 117.945185 
L 154.040835 142.503956 
L 159.030402 142.63295 
L 164.01997 230.140738 
L 169.009538 114.687049 
L 173.999106 103.68928 
L 178.988674 134.21922 
L 183.978241 134.864189 
L 188.967809 174.290546 
L 193.957377 208.423993 
L 203.936513 232.479272 
L 208.92608 128.077446 
L 213.915648 155.844421 
L 218.905216 111.337369 
L 223.894784 189.91129 
L 228.884352 171.823018 
L 233.87392 175.110282 
L 238.863487 44.443636 
L 243.853055 62.215665 
L 248.842623 81.23186 
L 253.832191 84.527446 
L 258.821759 123.737426 
L 263.811326 194.043255 
L 268.800894 209.788831 
L 273.790462 90.203177 
L 278.78003 130.628196 
L 283.769598 127.898519 
L 288.759165 83.903282 
L 293.748733 134.502174 
L 298.738301 105.145662 
L 303.727869 216.538124 
L 308.717437 85.376309 
L 313.707004 57.318058 
L 318.696572 80.166621 
L 323.68614 106.073586 
L 328.675708 85.447048 
L 333.665276 186.877853 
L 338.654844 207.749896 
L 343.644411 109.835214 
L 348.633979 83.187574 
L 353.623547 119.709488 
L 358.613115 143.032415 
L 363.602683 108.75333 
L 368.59225 121.981445 
L 373.581818 199.157239 
" style="fill:none;stroke:#d3d3d3;stroke-linecap:round;stroke-width:3;"/>
   </g>
   <g id="line2d_18">
    <path clip-path="url(#p3b8ff92cad)" d="M 69.218182 124.299768 
L 74.20775 119.646477 
L 79.197317 115.916355 
L 84.186885 138.847544 
L 89.176453 147.8575 
L 94.166021 159.778437 
L 99.155589 164.775315 
L 104.145156 173.869087 
L 109.134724 169.946365 
L 114.124292 165.323391 
L 119.11386 153.543336 
L 124.103428 136.66832 
L 129.092996 132.096468 
L 134.082563 116.138676 
L 139.072131 117.915463 
L 144.061699 128.00968 
L 149.051267 131.101372 
L 154.040835 133.121286 
L 159.030402 138.631762 
L 164.01997 145.266922 
L 169.009538 145.045195 
L 173.999106 140.901935 
L 178.988674 140.831197 
L 183.978241 143.248197 
L 188.967809 147.789139 
L 193.957377 157.187859 
L 203.936513 164.661083 
L 208.92608 168.725778 
L 213.915648 172.329978 
L 218.905216 168.408841 
L 223.894784 171.012298 
L 228.884352 164.912136 
L 233.87392 166.369014 
L 238.863487 139.50678 
L 243.853055 130.097954 
L 248.842623 119.439017 
L 253.832191 115.609028 
L 258.821759 106.155619 
L 263.811326 109.329939 
L 268.800894 114.284017 
L 273.790462 120.821094 
L 278.78003 130.594313 
L 283.769598 137.260979 
L 288.759165 137.171813 
L 293.748733 138.709634 
L 298.738301 126.009978 
L 303.727869 126.974162 
L 308.717437 126.28461 
L 313.707004 115.811733 
L 318.696572 108.99289 
L 323.68614 112.160076 
L 328.675708 105.152201 
L 333.665276 116.828228 
L 338.654844 115.572767 
L 343.644411 119.066897 
L 348.633979 122.762542 
L 353.623547 128.411523 
L 358.613115 133.691355 
L 363.602683 137.020824 
L 368.59225 127.749909 
L 373.581818 126.522386 
" style="fill:none;stroke:#9dd9e5;stroke-linecap:round;stroke-width:5;"/>
   </g>
   <g id="line2d_19">
    <path clip-path="url(#p3b8ff92cad)" d="M 223.894784 242.116364 
L 223.894784 62.357142 
" style="fill:none;stroke:#e98ebb;stroke-linecap:round;stroke-width:5;"/>
   </g>
   <g id="patch_3">
    <path d="M 54 252 
L 54 34.56 
" style="fill:none;stroke:#d3d3d3;stroke-linecap:square;stroke-linejoin:miter;stroke-width:3;"/>
   </g>
   <g id="patch_4">
    <path d="M 54 252 
L 388.8 252 
" style="fill:none;stroke:#d3d3d3;stroke-linecap:square;stroke-linejoin:miter;stroke-width:3;"/>
   </g>
   <g id="text_18">
    <!-- Time Spent Programming -->
    <g style="fill:#262626;" transform="translate(126.455 28.56)scale(0.16 -0.16)">
     <use xlink:href="#OpenSans-84"/>
     <use x="55.322266" xlink:href="#OpenSans-105"/>
     <use x="80.615234" xlink:href="#OpenSans-109"/>
     <use x="173.632812" xlink:href="#OpenSans-101"/>
     <use x="229.736328" xlink:href="#OpenSans-32"/>
     <use x="255.712891" xlink:href="#OpenSans-83"/>
     <use x="310.595703" xlink:href="#OpenSans-112"/>
     <use x="371.875" xlink:href="#OpenSans-101"/>
     <use x="427.978516" xlink:href="#OpenSans-110"/>
     <use x="489.355469" xlink:href="#OpenSans-116"/>
     <use x="524.658203" xlink:href="#OpenSans-32"/>
     <use x="550.634766" xlink:href="#OpenSans-80"/>
     <use x="610.839844" xlink:href="#OpenSans-114"/>
     <use x="649.660156" xlink:href="#OpenSans-111"/>
     <use x="710.060547" xlink:href="#OpenSans-103"/>
     <use x="764.845703" xlink:href="#OpenSans-114"/>
     <use x="803.666016" xlink:href="#OpenSans-97"/>
     <use x="859.28125" xlink:href="#OpenSans-109"/>
     <use x="952.298828" xlink:href="#OpenSans-109"/>
     <use x="1045.316406" xlink:href="#OpenSans-105"/>
     <use x="1070.609375" xlink:href="#OpenSans-110"/>
     <use x="1131.986328" xlink:href="#OpenSans-103"/>
    </g>
   </g>
   <g id="legend_1">
    <g id="line2d_20">
     <path d="M 401.4 52.897813 
L 429.4 52.897813 
" style="fill:none;stroke:#d3d3d3;stroke-linecap:round;stroke-width:3;"/>
    </g>
    <g id="line2d_21"/>
    <g id="text_19">
     <!-- raw data -->
     <defs>
      <path d="M 52.296875 0 
L 42.484375 31.390625 
Q 41.546875 34.28125 39.015625 44.484375 
L 38.625 44.484375 
Q 36.671875 35.9375 35.203125 31.296875 
L 25.09375 0 
L 15.71875 0 
L 1.125 53.515625 
L 9.625 53.515625 
Q 14.796875 33.34375 17.5 22.796875 
Q 20.21875 12.25 20.609375 8.59375 
L 21 8.59375 
Q 21.53125 11.375 22.71875 15.796875 
Q 23.921875 20.21875 24.8125 22.796875 
L 34.625 53.515625 
L 43.40625 53.515625 
L 52.984375 22.796875 
Q 55.71875 14.40625 56.6875 8.6875 
L 57.078125 8.6875 
Q 57.28125 10.453125 58.125 14.109375 
Q 58.984375 17.78125 68.3125 53.515625 
L 76.703125 53.515625 
L 61.921875 0 
z
" id="OpenSans-119"/>
      <path d="M 45.015625 7.171875 
L 44.578125 7.171875 
Q 38.96875 -0.984375 27.78125 -0.984375 
Q 17.28125 -0.984375 11.4375 6.1875 
Q 5.609375 13.375 5.609375 26.609375 
Q 5.609375 39.84375 11.46875 47.171875 
Q 17.328125 54.5 27.78125 54.5 
Q 38.671875 54.5 44.484375 46.578125 
L 45.125 46.578125 
L 44.78125 50.4375 
L 44.578125 54.203125 
L 44.578125 75.984375 
L 52.6875 75.984375 
L 52.6875 0 
L 46.09375 0 
z
M 28.8125 5.8125 
Q 37.109375 5.8125 40.84375 10.328125 
Q 44.578125 14.84375 44.578125 24.90625 
L 44.578125 26.609375 
Q 44.578125 37.984375 40.796875 42.84375 
Q 37.015625 47.703125 28.71875 47.703125 
Q 21.578125 47.703125 17.796875 42.15625 
Q 14.015625 36.625 14.015625 26.515625 
Q 14.015625 16.265625 17.765625 11.03125 
Q 21.53125 5.8125 28.8125 5.8125 
z
" id="OpenSans-100"/>
     </defs>
     <g style="fill:#262626;" transform="translate(440.6 57.797813)scale(0.14 -0.14)">
      <use xlink:href="#OpenSans-114"/>
      <use x="38.820312" xlink:href="#OpenSans-97"/>
      <use x="94.435547" xlink:href="#OpenSans-119"/>
      <use x="172.21875" xlink:href="#OpenSans-32"/>
      <use x="198.195312" xlink:href="#OpenSans-100"/>
      <use x="259.474609" xlink:href="#OpenSans-97"/>
      <use x="315.089844" xlink:href="#OpenSans-116"/>
      <use x="350.392578" xlink:href="#OpenSans-97"/>
     </g>
    </g>
    <g id="line2d_22">
     <path d="M 401.4 73.9 
L 429.4 73.9 
" style="fill:none;stroke:#9dd9e5;stroke-linecap:round;stroke-width:5;"/>
    </g>
    <g id="line2d_23"/>
    <g id="text_20">
     <!-- 7 day moving average -->
     <defs>
      <path d="M 13.921875 0 
L 43.5 63.921875 
L 4.59375 63.921875 
L 4.59375 71.390625 
L 52.09375 71.390625 
L 52.09375 64.890625 
L 22.90625 0 
z
" id="OpenSans-55"/>
      <path d="M 0.09375 53.515625 
L 8.796875 53.515625 
L 20.515625 23 
Q 24.359375 12.546875 25.296875 7.90625 
L 25.6875 7.90625 
Q 26.3125 10.40625 28.34375 16.4375 
Q 30.375 22.46875 41.609375 53.515625 
L 50.296875 53.515625 
L 27.296875 -7.421875 
Q 23.875 -16.453125 19.3125 -20.234375 
Q 14.75 -24.03125 8.109375 -24.03125 
Q 4.390625 -24.03125 0.78125 -23.1875 
L 0.78125 -16.703125 
Q 3.46875 -17.28125 6.78125 -17.28125 
Q 15.140625 -17.28125 18.703125 -7.90625 
L 21.6875 -0.296875 
z
" id="OpenSans-121"/>
      <path d="M 20.3125 0 
L 0 53.515625 
L 8.6875 53.515625 
L 20.21875 21.78125 
Q 24.125 10.640625 24.8125 7.328125 
L 25.203125 7.328125 
Q 25.734375 9.90625 28.59375 18.03125 
Q 31.453125 26.171875 41.40625 53.515625 
L 50.09375 53.515625 
L 29.78125 0 
z
" id="OpenSans-118"/>
     </defs>
     <g style="fill:#262626;" transform="translate(440.6 78.8)scale(0.14 -0.14)">
      <use xlink:href="#OpenSans-55"/>
      <use x="57.177734" xlink:href="#OpenSans-32"/>
      <use x="83.154297" xlink:href="#OpenSans-100"/>
      <use x="144.433594" xlink:href="#OpenSans-97"/>
      <use x="200.048828" xlink:href="#OpenSans-121"/>
      <use x="250.439453" xlink:href="#OpenSans-32"/>
      <use x="276.416016" xlink:href="#OpenSans-109"/>
      <use x="369.433594" xlink:href="#OpenSans-111"/>
      <use x="427.833984" xlink:href="#OpenSans-118"/>
      <use x="477.931641" xlink:href="#OpenSans-105"/>
      <use x="503.224609" xlink:href="#OpenSans-110"/>
      <use x="564.601562" xlink:href="#OpenSans-103"/>
      <use x="619.386719" xlink:href="#OpenSans-32"/>
      <use x="645.363281" xlink:href="#OpenSans-97"/>
      <use x="700.978516" xlink:href="#OpenSans-118"/>
      <use x="751.076172" xlink:href="#OpenSans-101"/>
      <use x="807.179688" xlink:href="#OpenSans-114"/>
      <use x="846" xlink:href="#OpenSans-97"/>
      <use x="901.615234" xlink:href="#OpenSans-103"/>
      <use x="956.400391" xlink:href="#OpenSans-101"/>
     </g>
    </g>
    <g id="line2d_24">
     <path d="M 401.4 94.902188 
L 429.4 94.902188 
" style="fill:none;stroke:#e98ebb;stroke-linecap:round;stroke-width:5;"/>
    </g>
    <g id="line2d_25"/>
    <g id="text_21">
     <!-- Ruptures change point detected -->
     <defs>
      <path d="M 18.109375 29.6875 
L 18.109375 0 
L 9.8125 0 
L 9.8125 71.390625 
L 29.390625 71.390625 
Q 42.53125 71.390625 48.796875 66.359375 
Q 55.078125 61.328125 55.078125 51.21875 
Q 55.078125 37.0625 40.71875 32.078125 
L 60.109375 0 
L 50.296875 0 
L 33.015625 29.6875 
z
M 18.109375 36.8125 
L 29.5 36.8125 
Q 38.28125 36.8125 42.375 40.296875 
Q 46.484375 43.796875 46.484375 50.78125 
Q 46.484375 57.859375 42.3125 60.984375 
Q 38.140625 64.109375 28.90625 64.109375 
L 18.109375 64.109375 
z
" id="OpenSans-82"/>
     </defs>
     <g style="fill:#262626;" transform="translate(440.6 99.802188)scale(0.14 -0.14)">
      <use xlink:href="#OpenSans-82"/>
      <use x="61.816406" xlink:href="#OpenSans-117"/>
      <use x="123.193359" xlink:href="#OpenSans-112"/>
      <use x="184.472656" xlink:href="#OpenSans-116"/>
      <use x="219.775391" xlink:href="#OpenSans-117"/>
      <use x="281.152344" xlink:href="#OpenSans-114"/>
      <use x="319.972656" xlink:href="#OpenSans-101"/>
      <use x="376.076172" xlink:href="#OpenSans-115"/>
      <use x="423.78125" xlink:href="#OpenSans-32"/>
      <use x="449.757812" xlink:href="#OpenSans-99"/>
      <use x="497.365234" xlink:href="#OpenSans-104"/>
      <use x="558.742188" xlink:href="#OpenSans-97"/>
      <use x="614.357422" xlink:href="#OpenSans-110"/>
      <use x="675.734375" xlink:href="#OpenSans-103"/>
      <use x="730.519531" xlink:href="#OpenSans-101"/>
      <use x="786.623047" xlink:href="#OpenSans-32"/>
      <use x="812.599609" xlink:href="#OpenSans-112"/>
      <use x="873.878906" xlink:href="#OpenSans-111"/>
      <use x="934.279297" xlink:href="#OpenSans-105"/>
      <use x="959.572266" xlink:href="#OpenSans-110"/>
      <use x="1020.949219" xlink:href="#OpenSans-116"/>
      <use x="1056.251953" xlink:href="#OpenSans-32"/>
      <use x="1082.228516" xlink:href="#OpenSans-100"/>
      <use x="1143.507812" xlink:href="#OpenSans-101"/>
      <use x="1199.611328" xlink:href="#OpenSans-116"/>
      <use x="1234.914062" xlink:href="#OpenSans-101"/>
      <use x="1291.017578" xlink:href="#OpenSans-99"/>
      <use x="1338.625" xlink:href="#OpenSans-116"/>
      <use x="1373.927734" xlink:href="#OpenSans-101"/>
      <use x="1430.03125" xlink:href="#OpenSans-100"/>
     </g>
    </g>
   </g>
  </g>
 </g>
 <defs>
  <clipPath id="p3b8ff92cad">
   <rect height="217.44" width="334.8" x="54" y="34.56"/>
  </clipPath>
 </defs>
</svg>
